<?xml version="1.0" encoding="utf-8"?>
<!-- Generator: Adobe Illustrator 25.2.3, SVG Export Plug-In . SVG Version: 6.00 Build 0)  -->
<svg version="1.1" id="Layer_1" xmlns="http://www.w3.org/2000/svg" xmlns:xlink="http://www.w3.org/1999/xlink" x="0px" y="0px"
	 viewBox="0 0 512 512" style="enable-background:new 0 0 512 512;" xml:space="preserve">
<style type="text/css">
	.st0{fill:#FFFFFF;}
</style>
<g>
	<path class="st0" d="M413.9,314.6c-10.7,0-21.4,1.8-31.6,5.3l-24.6-55.7c0-0.1-0.1-0.1-0.1-0.2s0-0.1,0-0.2L343.7,236l26.2-19.6h27
		c7.1,0,12.8,5.7,12.8,12.8S404,242,396.9,242H384c-4.7,0-8.5,3.8-8.5,8.5s3.8,8.5,8.5,8.5h12.8c16.5,0,29.9-13.4,29.9-29.9
		s-13.4-29.9-29.9-29.9h-29.9c-1.8,0-3.6,0.6-5.1,1.7l-34.1,25.6c-3.3,2.5-4.4,6.9-2.6,10.6l11.9,23.8c-17.2,3.1-34.1,7.7-50.5,13.7
		c-0.3,0.1-0.7,0.3-1,0.4c-5.3,1.9-10.5,4.1-15.6,6.3c-1.2,0.5-2.3,1-3.5,1.5c-4.4,2-8.7,4-13,6.2c-1.3,0.7-2.6,1.3-3.8,1.9
		c-5.3,2.8-10.5,5.7-15.7,8.7l-7.5,4.5l-1.6,1c-5.1,3.1-10.2,6.3-15.2,9.6l-19.6-59c4.8-2,9.1-4.9,12.8-8.5l5.5-5.5h13.5
		c14.1,0,25.6-11.5,25.6-25.6s-11.5-25.6-25.6-25.6h-67.3c-10.8,0-20.5,6.5-24.6,16.4c-4.1,10-1.8,21.4,5.8,29l11.3,11.3
		c7,6.9,16.2,10.9,25.9,11.4l22.1,66.3c-6,4.4-11.9,8.9-17.7,13.7l-8,6.5c-2.3-2.4-4.7-4.7-7.2-6.8V293c0-14.1-11.5-25.6-25.6-25.6
		H51.1c-14.1,0-25.6,11.5-25.6,25.6v53.6c-29.5,32.7-33.9,80.7-10.7,118s68.1,54.6,110.3,42.6s71.2-50.6,71.2-94.4
		c0-19.2-5.6-38-16.3-54l8.2-6.7c4.1-3.3,8.4-6.4,12.7-9.6l21.5,64.5c-9.5,10.3-11.7,25.3-5.6,37.9c6.1,12.6,19.2,20.2,33.1,19.3
		c13.9-1,25.9-10.3,30.2-23.6s0-27.9-10.8-36.8l20.6-27.5c19.7-26.1,42.3-49.9,67.4-70.8l9.4,21.3c-43.3,23.8-62.1,76.2-43.8,122.1
		c18.2,45.9,67.8,71.1,115.6,58.8c47.9-12.3,79.1-58.3,72.8-107.3C505,351.3,463.3,314.6,413.9,314.6z M147.8,224.3
		c-2.7-2.7-3.6-6.9-2.1-10.4c1.5-3.6,5-5.9,8.8-5.9h67.3c4.7,0,8.5,3.8,8.5,8.5s-3.8,8.5-8.5,8.5h-17.1c-2.3,0-4.4,0.9-6,2.5l-8,8
		c-8.9,8.3-22.7,8.3-31.7,0L147.8,224.3z M51.1,404.2c-4.7,0-8.5-3.8-8.5-8.5V336h17.1v17h17.1v-17h34.1v17H128v-17h17v59.8
		c0,4.7-3.8,8.5-8.5,8.5L51.1,404.2L51.1,404.2z M42.6,293.3c0-4.7,3.8-8.5,8.5-8.5h85.4c4.7,0,8.5,3.8,8.5,8.5v25.6h-17.1v-17.1
		h-17.1v17.1H76.7v-17.1H59.6v17.1h-17V293.3z M98.1,493.9c-28.1,0-54.2-14.5-69-38.4s-16.1-53.7-3.6-78.8v19.1
		c0,14.1,11.5,25.6,25.6,25.6H74c3.6,10.2,13.2,17.1,24,17.1s20.5-6.9,24-17.1h14.4c14.1,0,25.6-11.5,25.6-25.6V374l4.8-4.2
		c15.6,25,16.4,56.5,2.1,82.3C154.7,477.9,127.5,493.9,98.1,493.9z M248.4,311.4c2.7-1.5,5.4-3.1,8.2-4.5c1.3-0.7,2.7-1.4,4-2.1
		c3.1-1.6,6.1-3.1,9.3-4.5c1.1-0.5,2.1-1,3.2-1.4c3.5-1.6,7-3.1,10.5-4.5l2.5-1c3.8-1.5,7.6-2.9,11.4-4.2l1.2-0.4v7.4
		c0,5.5-3.1,10.5-8,12.9l-24,12c-5.5,2.7-12,1.7-16.5-2.5l-5.4-5.2C246,312.7,247.2,312,248.4,311.4z M247.4,446.9
		c-9.4,0-17.1-7.6-17.1-17.1c0-9.4,7.6-17.1,17.1-17.1c9.4,0,17.1,7.6,17.1,17.1S256.9,446.9,247.4,446.9z M276.1,366l-22.7,30.3
		c-5.4-1.1-11.1-0.7-16.3,1.2L215.3,332c4.8-3.2,9.6-6.4,14.5-9.4c3,2.9,6,5.8,8.6,8.3c9.6,9.2,24,11.4,35.9,5.5l24-12
		c10.7-5.3,17.5-16.3,17.4-28.2v-12.7c9.6-2.6,19.2-4.7,29-6.4l5.3,12.1C322.4,311.7,297.5,337.5,276.1,366z M413.9,493.9
		c-36.7,0-68.9-24.7-78.4-60.2s6.2-72.9,38-91.2l22.8,51.7c-8.9,8.4-10.5,22-3.9,32.3s19.6,14.5,31,9.9s17.9-16.6,15.6-28.6
		s-12.9-20.7-25.1-20.7c-0.6,0-1.3,0.1-1.9,0.2l-22.9-51.8c30.5-9.8,63.8-0.7,85.2,23.1c21.4,23.8,26.7,58,13.6,87.2
		C474.9,475.1,445.9,493.9,413.9,493.9z M413.9,404.2c4.7,0,8.5,3.8,8.5,8.5s-3.8,8.5-8.5,8.5s-8.5-3.8-8.5-8.5
		S409.2,404.2,413.9,404.2z"/>
	<path class="st0" d="M432.2,460.6c-9.3,3.5-19.5,4.3-29.3,2.2c-3-0.8-6.2,0.2-8.3,2.5c-2.1,2.3-2.8,5.5-1.9,8.5
		c1,3,3.5,5.2,6.6,5.7c13,2.8,26.6,1.8,39-2.9c2.9-1.1,5-3.6,5.5-6.6s-0.7-6.1-3.1-8C438.3,460,435,459.5,432.2,460.6z"/>
	<path class="st0" d="M458,371.6c-3.9,2.7-4.8,8-2.1,11.9c12.2,17.6,12.2,40.9,0,58.5c-1.8,2.5-2.1,5.8-0.9,8.6
		c1.3,2.8,4,4.7,7.1,4.9c3.1,0.2,6.1-1.2,7.8-3.8c16.3-23.5,16.3-54.6,0-78.1C467.2,369.9,461.9,368.9,458,371.6z"/>
	<path class="st0" d="M281.6,37.2c-14.1,0-25.6,11.5-25.6,25.6s11.5,25.6,25.6,25.6s25.6-11.5,25.6-25.6S295.7,37.2,281.6,37.2z
		 M281.6,71.3c-4.7,0-8.5-3.8-8.5-8.5s3.8-8.5,8.5-8.5s8.5,3.8,8.5,8.5S286.3,71.3,281.6,71.3z"/>
	<path class="st0" d="M341.3,62.8c0-26-16.8-49-41.6-56.9C275-2,248,7,232.9,28.2s-14.7,49.7,0.9,70.5l41,54.6
		c1.6,2.2,4.1,3.4,6.8,3.4c2.7,0,5.2-1.3,6.8-3.4l41-54.6C337.1,88.3,341.3,75.7,341.3,62.8z M315.7,88.4l-34.1,45.5l-34.1-45.5
		c-13.2-17.6-10.9-42.4,5.4-57.2s41.2-14.8,57.4,0C326.6,46,328.9,70.8,315.7,88.4z"/>
	<path class="st0" d="M273,173.8h17.1v17.1H273V173.8z"/>
	<path class="st0" d="M273,207.9h17.1V225H273V207.9z"/>
	<path class="st0" d="M273,242.1h17.1v17.1H273V242.1z"/>
</g>
</svg>
