<?xml version="1.0" encoding="utf-8"?>
<!-- Generator: Adobe Illustrator 25.2.3, SVG Export Plug-In . SVG Version: 6.00 Build 0)  -->
<svg version="1.1" id="Layer_1" xmlns="http://www.w3.org/2000/svg" xmlns:xlink="http://www.w3.org/1999/xlink" x="0px" y="0px"
	 viewBox="0 0 512 512" style="enable-background:new 0 0 512 512;" xml:space="preserve">
<style type="text/css">
	.st0{fill:#FFFFFF;}
</style>
<g>
	<path class="st0" d="M418.1,227.2c-6.6,0-13.2,0.7-19.6,2.1l-2.8-10.6h13.5c14.3,0,26-11.6,26-26v-42.3c0-4.7-3.8-8.5-8.5-8.5
		h-51.2c-2.3,0-4.6,1-6.2,2.7l-14.6-29.2c-5-9.9-15.1-16.2-26.2-16.2s-21.2,6.3-26.2,16.2L291,138c-2.1,4.2-0.4,9.3,3.8,11.5
		c4.2,2.1,9.3,0.4,11.5-3.8l11.3-22.7c2.1-4.1,6.3-6.7,10.9-6.7s8.8,2.6,10.9,6.7l24.6,49.2l-9.4,4.7l-13.3,9.8
		c-16,11.9-26.6,29.8-29.4,49.6l-9.5,66.8c-1.5,10.3-10.3,17.9-20.7,18h-3.3c-7.4-6.9-17.5-9.8-27.5-8l-2.6-11.4l-11.1-48.9h-0.1
		l-6.3-27.5c-0.9-3.9-4.3-6.6-8.3-6.6h-0.7v-16.1l2-1h10.8c11.8,0,21.3-9.6,21.3-21.3c0-11.8-9.6-21.3-21.3-21.3h-64
		c-4.7,0-8.5,3.8-8.5,8.5v16.7c0,14.3,11.6,26,26,26h16.7v8.5l-17.1-0.1c-2.6,0-5.1,1.2-6.7,3.2c-1.6,2-2.2,4.7-1.6,7.2l6.5,28.2
		l-15.9,9.3c-9.6-13.3-22.4-23.9-37.3-30.7h20.9v-25.6c0-4.7-3.8-8.5-8.5-8.5s-8.5,3.8-8.5,8.5v8.5H34.1c-4.7,0-8.5,3.8-8.5,8.5
		s3.8,8.5,8.5,8.5H55C15.4,253.7-6.6,296.4,1.7,339s44.8,74,88.2,75.8s82.3-26.4,94.2-68.2h37.8c0,18.9,15.3,34.1,34.1,34.1
		c6.1,0,12-1.7,17.2-4.8l10.9,10.9c1.6,1.6,3.8,2.5,6,2.5h17.1c4.7,0,8.5-3.8,8.5-8.5s-3.8-8.5-8.5-8.5h-13.5l-8.4-8.4
		c4.9-7.9,6.2-17.6,3.4-26.5c15.9-3.1,28.2-15.9,30.6-32l9.5-66.8c2.1-15.3,10.3-29.1,22.7-38.4l11.4-8.5l7-3.5l5,18.9l0.6,4.1
		c0.2,1.3,0.7,2.4,1.4,3.5l5.2,19.6c-44.6,18.5-67.8,67.8-53.7,114c14.1,46.2,60.8,74.1,108.1,64.7c47.3-9.5,79.7-53.3,75-101.3
		C506.8,263.7,466.4,227.1,418.1,227.2z M202.8,193h-14.7c-4.9,0-8.9-4-8.9-8.9V176h55.5c2.4,0,4.3,1.9,4.3,4.3
		c0,2.4-1.9,4.3-4.3,4.3h-12.8c-1.3,0-2.6,0.3-3.8,0.9L202.8,193z M230.5,300.5l4.4,19.4c-3.3,2.6-6.1,5.9-8.3,9.5h-6.5l-13.8-59.7
		h17.2L230.5,300.5z M213.1,235.7h0.2h0.2h2.2l3.9,17.1h-17.2l-4-17.2L213.1,235.7z M155.3,275.1L118,296.9
		c-6.4-6.5-15.1-10.1-24.2-10.1c-0.2,0-0.3,0-0.5,0L82,245.2C110.1,240.6,138.4,252.1,155.3,275.1L155.3,275.1z M170.6,321
		c0,2.9-0.2,5.7-0.5,8.5h-43.4c1.7-5.8,1.6-12-0.2-17.8l37.4-22C168.3,299.6,170.6,310.2,170.6,321z M93.8,304
		c9.4,0,17.1,7.6,17.1,17.1s-7.6,17.1-17.1,17.1s-17.1-7.6-17.1-17.1S84.4,304,93.8,304z M93.8,397.8c-36.8-0.1-68.4-26.2-75.3-62.4
		s12.8-72.1,47-85.7L77,291.5c-11.3,6.4-17.9,18.7-17.1,31.6c0.8,12.9,8.9,24.3,20.8,29.3c12,5,25.7,2.7,35.5-5.8h50
		C155.3,377.3,126.3,397.8,93.8,397.8z M178.7,281.1l11.2-6.6l12.7,55h-15.4c0.3-2.8,0.4-5.7,0.4-8.5
		C187.7,307.2,184.6,293.6,178.7,281.1z M238.9,346.6c0-9.4,7.6-17.1,17.1-17.1s17.1,7.6,17.1,17.1c0,9.4-7.6,17.1-17.1,17.1
		S238.9,356,238.9,346.6z M418.1,158.9v33.8c0,4.9-4,8.9-8.9,8.9h-17.8l-6.1-42.7H418.1z M418.1,397.8c-36.2,0-67.5-25.3-75.1-60.7
		s10.6-71.3,43.6-86.1l13.8,51.6c-8.8,8.5-10.3,22.1-3.6,32.3c6.7,10.2,19.7,14.3,31,9.7c11.3-4.6,17.8-16.6,15.4-28.6
		s-12.9-20.6-25.1-20.6c-0.7,0-1.3,0.1-1.9,0.2l-13.3-49.9c28.7-5.8,58.2,5.2,76.1,28.4s21,54.5,8.1,80.8
		C474.1,381.2,447.4,397.8,418.1,397.8z M418.1,312.5c4.7,0,8.5,3.8,8.5,8.5s-3.8,8.5-8.5,8.5s-8.5-3.8-8.5-8.5
		S413.4,312.5,418.1,312.5z"/>
</g>
</svg>
