<?xml version="1.0" encoding="utf-8"?>
<!-- Generator: Adobe Illustrator 25.2.3, SVG Export Plug-In . SVG Version: 6.00 Build 0)  -->
<svg version="1.1" id="Слой_1" xmlns="http://www.w3.org/2000/svg" xmlns:xlink="http://www.w3.org/1999/xlink" x="0px" y="0px"
	 viewBox="0 0 64 64" style="enable-background:new 0 0 64 64;" xml:space="preserve">
<style type="text/css">
	.st0{fill:#FFFFFF;}
</style>
<circle class="st0" cx="15.5" cy="30.5" r="1.5"/>
<circle class="st0" cx="48.5" cy="30.5" r="1.5"/>
<path class="st0" d="M29.5,38c0,1,1.1,2.5,2.5,2.5c1.4,0,2.5-1.5,2.5-2.5H29.5z"/>
<path class="st0" d="M58,39L58,39v-5.6c1.2-0.7,2-2,2-3.4s-0.8-2.8-2-3.4V24c0-6.6-5.4-12-12-12c-6.4,0-11.6,5-12,11.2
	C33.3,23,32.7,23,32,23s-1.4,0.1-2,0.2C29.6,17,24.4,12,18,12c-6.6,0-12,5.4-12,12v2.6c-1.2,0.7-2,2-2,3.4c0,2.2,1.8,4,4,4h0.8
	c0.2,0.5,0.5,1,0.8,1.5C5.5,38.3,3,43,3,48v4h2v-4c0-4.4,2.3-8.5,6-10.9c1.8,1.8,4.3,2.9,7,2.9v-2c-4.4,0-8-3.6-8-8v-2h1
	c3.4,0,6.6-1.3,9-3.3c1.1,1.3,2.5,2.3,4.2,2.9C23.4,28.9,23,30.4,23,32c-1.7,0-3,1.3-3,3s1.3,3,3,3h0.2c0.2,0.7,0.4,1.4,0.8,2.1
	c-2.5,2.3-4,5.5-4,8.9v1h-6v2h36v-2h-6v-1c0-3.4-1.5-6.6-4-8.9c0.3-0.7,0.6-1.4,0.8-2.1H41c1.7,0,3-1.3,3-3s-1.3-3-3-3
	c0-1.6-0.4-3.1-1.2-4.4c2.7-0.8,5-2.7,6.2-5.2c1.5,3.1,4.5,5.3,8,5.6v2c0,4.4-3.6,8-8,8v2c2.7,0,5.2-1.1,7-2.9c3.7,2.4,6,6.5,6,10.9
	v4h2v-4C61,44.7,59.9,41.6,58,39z M56,32h-0.2c0.1-0.6,0.2-1.3,0.2-2v-2c1.1,0,2,0.9,2,2S57.1,32,56,32z M39,32v4c0,3.9-3.1,7-7,7
	s-7-3.1-7-7v-4c0-3.9,3.1-7,7-7S39,28.1,39,32z M8,32c-1.1,0-2-0.9-2-2s0.9-2,2-2v2c0,0.7,0.1,1.4,0.2,2H8z M11,26h-1H9H8v-2
	c0-5.5,4.5-10,10-10c1.8,0,3.5,0.5,4.9,1.3C22.3,21.3,17.1,26,11,26z M21.5,23.3c1.6-1.8,2.8-4.1,3.3-6.6c2,1.8,3.2,4.4,3.3,7.3
	c-1,0.5-1.8,1.1-2.5,1.9C23.9,25.5,22.5,24.6,21.5,23.3z M22,35c0-0.6,0.4-1,1-1v2C22.4,36,22,35.6,22,35z M42,49v1H22v-1
	c0-2.8,1.1-5.3,3.1-7.2c1.7,2,4.1,3.2,6.9,3.2s5.2-1.3,6.9-3.2C40.9,43.7,42,46.2,42,49z M41,34c0.6,0,1,0.4,1,1s-0.4,1-1,1V34z
	 M47,18h-2c0,3.9-2.7,7.1-6.5,7.8C37.8,25.1,37,24.4,36,24c0-5.5,4.5-10,10-10s10,4.5,10,10v2h-1C50.6,26,47,22.4,47,18z M54.3,35.5
	c0.3-0.5,0.6-1,0.8-1.5H56v2.8C55.5,36.4,54.9,35.9,54.3,35.5z"/>
</svg>
