<?xml version="1.0" encoding="utf-8"?>
<!-- Generator: Adobe Illustrator 25.2.3, SVG Export Plug-In . SVG Version: 6.00 Build 0)  -->
<svg version="1.1" id="Layer_1" xmlns="http://www.w3.org/2000/svg" xmlns:xlink="http://www.w3.org/1999/xlink" x="0px" y="0px"
	 viewBox="0 0 512 512" style="enable-background:new 0 0 512 512;" xml:space="preserve">
<g>
	<path d="M482.1,202.8c-2.4-4.6-5-9-7.6-13.5c-0.4-0.6-0.8-1.3-1.2-1.9c-1.1-1.8-2-3.6-3.2-5.3l35.7-11.5c4.3-1.4,6.9-5.8,6.1-10.2
		c-0.8-4.5-4.9-7.6-9.4-7.2l-51.5,3.4c-1.4-1.7-2.8-3.5-4.2-5.1l44.1-36.3c2.9-2.4,4-6.4,2.7-9.9c-1.3-3.6-4.6-5.9-8.4-5.9H407
		l29.2-19.5c3.3-2.2,4.8-6.3,3.6-10.1c-1.1-3.8-4.6-6.4-8.6-6.4H260.8c-0.5,0.1-1,0.2-1.5,0.3c-2.5-0.1-5-0.3-7.5-0.3
		c-118,0.1-221.2,79.4-251.5,193.4c-1.3,4.8,1.5,9.6,6.3,10.9l129.6,35.8c11.8,3.3,24.1,4,36.2,2c0.3-0.1,0.6-0.1,1-0.2l29.7-8.1
		l75.6,109.9v33.1c0,5,4,9,9,9h35.9c5,0,9-4,9-9v-33.6l10.4-18.8l11.2,5.8c8.6,4.5,19.3,1.2,23.9-7.3l10-18.2
		c4.5-8.3,1.9-18.6-6-23.7l-11.1-7.2l4.2-7.5l118.3-83c0.8-0.6,1.5-1.3,2.1-2.1c1.7-2.4,2.2-5.5,1.2-8.3c-2.1-5.9-4.4-11.7-7-17.4
		c-1.6-3.6-3.3-7.1-5.1-10.6C483.9,206.5,483.1,204.7,482.1,202.8z M467.8,214.3c1.3,2.5,2.5,5,3.7,7.5c2.1,4.5,4.1,9,5.9,13.6
		c0.1,0.2,0.2,0.4,0.3,0.6l-109.8,77L274,261.9c-0.9-0.5-1.9-0.8-2.9-0.9c-0.2,0-0.5-0.1-0.7-0.1c-0.2,0-0.5-0.1-0.7-0.1
		c-0.8,0-1.6,0.1-2.4,0.3l-62.8,17.1l-1.3,0.4c4.7-8,12.1-14,20.9-16.8l227.6-73.2l0.7-0.2c4.6,6.8,8.7,13.7,12.6,20.7
		C466,210.8,466.9,212.5,467.8,214.3z M169.2,216.7l29-17.4l11.8,6.2l-32.1,8.8L169.2,216.7z M370,179.9l61.4-4.1l-210.9,68.3
		l-62.4-5.7L370,179.9z M257.6,174.3l38.3-9.5c6.2-1.5,12.8-1.4,18.9,0.3l20.3,5.8l-38.4,10.6l-18.1,5L257.6,174.3z M434.3,138.3
		c-7.7-7.6-16-14.6-24.6-21.2H460L434.3,138.3z M401.6,81.3l-23.1,15.4c-10.4-5.9-21.2-11-32.4-15.4H401.6z M169.2,287.9
		c-9.4,1.4-19,0.8-28.2-1.7l-121-33.4c25.2-82.7,92.6-145.7,176.8-165.3C281.1,68,369.4,94.9,428.5,158l-59.1,3.9l-49.6-14.2
		c-9.2-2.6-18.9-2.8-28.2-0.5l-59.9,15c-3.5,0.9-6.2,3.8-6.7,7.5c-0.5,3.6,1.2,7.2,4.4,9l25,14.4l-19,5.2L202.1,181
		c-2.8-1.4-6.1-1.3-8.8,0.3l-86.7,52L70.2,226c-4.9-1-9.6,2.1-10.6,7c-1,4.9,2.1,9.6,7,10.6l39.8,8c0.2,0,0.5,0.1,0.7,0.1
		c0.1,0,0.2,0.1,0.2,0.1l87.6,8.1c-5.9,6.3-10.2,13.9-12.6,22.1l-0.7,2.5L169.2,287.9z M268.7,279.3l87.5,47.8l-37.9,68.2h-25.9
		l-70.9-103.2L268.7,279.3z M314.6,431.2h-17.9v-17.9h17.9V431.2z M372.4,359.5l-9.9,18.2l-10.8-5.5l10.6-19.2L372.4,359.5z"/>
	<path d="M404.3,242.8h-80.8c-4,0-7.6,2.7-8.6,6.6c-1.1,3.9,0.6,8,4,10.1l44.9,26.9c3.1,1.9,7.1,1.7,10-0.5l35.9-26.9
		c3.1-2.3,4.4-6.4,3.1-10C411.6,245.3,408.2,242.8,404.3,242.8z M367.9,267.9l-11.9-7.2h21.4L367.9,267.9z"/>
	<path d="M144.1,153.1h53.8c0.9,0,1.7-0.1,2.6-0.4l89.7-26.9c4.3-1.3,7-5.5,6.3-9.9c-0.6-4.4-4.4-7.7-8.9-7.7h-73.4
		c-12.1,0-24.1,2.8-34.9,8.2l-39.2,19.6c-3.7,1.9-5.7,6-4.7,10.1C136.3,150.2,139.9,153.1,144.1,153.1z M187.4,132.5
		c8.4-4.2,17.6-6.3,26.9-6.4h12.3l-29.9,9h-14.5L187.4,132.5z"/>
	<path d="M444.2,207.9c-4.4-2.2-9.8-0.4-12,4l-9,17.9c-2.2,4.4-0.4,9.8,4,12c4.4,2.2,9.8,0.4,12-4l9-17.9
		C450.5,215.5,448.7,210.1,444.2,207.9z"/>
</g>
</svg>
