<?xml version="1.0" encoding="utf-8"?>
<!-- Generator: Adobe Illustrator 25.2.3, SVG Export Plug-In . SVG Version: 6.00 Build 0)  -->
<svg version="1.1" id="Layer_1" xmlns="http://www.w3.org/2000/svg" xmlns:xlink="http://www.w3.org/1999/xlink" x="0px" y="0px"
	 viewBox="0 0 64 64" style="enable-background:new 0 0 64 64;" xml:space="preserve">
<g id="surface1">
	<path d="M31,0C20.5,0,12,8.5,12,19v5H9c-1.7,0-3,1.3-3,3v30c0,1.7,1.3,3,3,3h46c1.7,0,3-1.3,3-3V27c0-1.7-1.3-3-3-3h-3v-5
		C52,8.5,43.5,0,33,0H31z M31,2h2c0.3,0,0.7,0,1,0.1v4C33.7,6,33.3,6,33,6h-2c-0.3,0-0.7,0-1,0.1v-4C30.3,2,30.7,2,31,2z M28,2.3
		v4.1C22.3,7.7,18,12.9,18,19v5h-4v-5C14,10.7,20.1,3.7,28,2.3z M36,2.3c7.9,1.4,14,8.4,14,16.7v5h-4v-5c0-6.1-4.3-11.3-10-12.6V2.3
		z M31,8h2c6.1,0,11,4.9,11,11v5H20v-5C20,12.9,24.9,8,31,8z M9,26h46c0.6,0,1,0.4,1,1v30c0,0.6-0.4,1-1,1H9c-0.6,0-1-0.4-1-1V27
		C8,26.4,8.4,26,9,26z M32,30c-5.5,0-10,4.5-10,10s4.5,10,10,10s10-4.5,10-10S37.5,30,32,30z M32,32c4.4,0,8,3.6,8,8s-3.6,8-8,8
		s-8-3.6-8-8S27.6,32,32,32z M32,33c-0.6,0-1,0.4-1,1v1.8c0,0.6,0.4,1,1,1s1-0.4,1-1V34C33,33.4,32.6,33,32,33z M27.8,34.7
		c-0.3,0-0.5,0.1-0.7,0.3c-0.4,0.4-0.4,1,0,1.4l1.3,1.3c0.2,0.2,0.4,0.3,0.7,0.3c0.3,0,0.5-0.1,0.7-0.3c0.4-0.4,0.4-1,0-1.4L28.5,35
		C28.3,34.8,28.1,34.7,27.8,34.7z M36.3,34.7c-0.3,0-0.5,0.1-0.7,0.3l-1.3,1.3c-0.4,0.4-0.4,1,0,1.4c0.2,0.2,0.5,0.3,0.7,0.3
		c0.3,0,0.5-0.1,0.7-0.3l1.3-1.3c0.4-0.4,0.4-1,0-1.4C36.8,34.8,36.6,34.7,36.3,34.7z M26,39c-0.6,0-1,0.4-1,1s0.4,1,1,1h1.8
		c0.6,0,1-0.4,1-1s-0.4-1-1-1H26z M36.2,39c-0.6,0-1,0.4-1,1s0.4,1,1,1H38c0.6,0,1-0.4,1-1s-0.4-1-1-1H36.2z M34.9,41.8
		c-0.3,0-0.5,0.1-0.7,0.3c-0.4,0.4-0.4,1,0,1.4l1.3,1.3c0.2,0.2,0.4,0.3,0.7,0.3s0.5-0.1,0.7-0.3c0.4-0.4,0.4-1,0-1.4l-1.3-1.3
		C35.4,41.9,35.1,41.8,34.9,41.8z M29.1,41.9c-0.3,0-0.5,0.1-0.7,0.3l-1.3,1.3c-0.4,0.4-0.4,1,0,1.4c0.2,0.2,0.4,0.3,0.7,0.3
		s0.5-0.1,0.7-0.3l1.3-1.3c0.4-0.4,0.4-1,0-1.4C29.6,42,29.4,41.9,29.1,41.9z M32,43c-0.6,0-1,0.4-1,1v1.8c0,0.6,0.4,1,1,1
		s1-0.4,1-1V44C33,43.4,32.6,43,32,43z M11,54c-0.6,0-1,0.4-1,1s0.4,1,1,1h34c0.6,0,1-0.4,1-1s-0.4-1-1-1H11z M49,54
		c-0.6,0-1,0.4-1,1s0.4,1,1,1h4c0.6,0,1-0.4,1-1s-0.4-1-1-1H49z"/>
</g>
</svg>
