<?xml version="1.0" encoding="utf-8"?>
<!-- Generator: Adobe Illustrator 25.2.3, SVG Export Plug-In . SVG Version: 6.00 Build 0)  -->
<svg version="1.1" id="Layer_1" xmlns="http://www.w3.org/2000/svg" xmlns:xlink="http://www.w3.org/1999/xlink" x="0px" y="0px"
	 viewBox="0 0 512 512" style="enable-background:new 0 0 512 512;" xml:space="preserve">
<style type="text/css">
	.st0{fill:#FF8A43;}
</style>
<g>
	<path class="st0" d="M443.7,34.1h-96.9C339.7,13.7,320.4,0,298.7,0c-21.7,0-41,13.7-48.2,34.1H68.3c-14.1,0-25.6,11.5-25.6,25.6
		v426.7c0,14.1,11.5,25.6,25.6,25.6h375.5c14.1,0,25.6-11.5,25.6-25.6V59.7C469.3,45.6,457.9,34.1,443.7,34.1z M145.1,51.2v56.2
		l-11-11c-3.3-3.3-8.7-3.3-12.1,0l-11,11V51.2H145.1z M341.3,494.9h-273c-4.7,0-8.5-3.8-8.5-8.5V59.7c0-4.7,3.8-8.5,8.5-8.5h25.6
		V128c0,3.4,2.1,6.6,5.3,7.9c3.2,1.3,6.9,0.6,9.3-1.8l19.6-19.6l19.6,19.6c2.4,2.4,6.1,3.2,9.3,1.8c3.2-1.3,5.3-4.4,5.3-7.9V51.2
		h85.3v102.4h17.1V51.2c0-18.8,15.3-34.1,34.1-34.1c18.8,0,34.1,15.3,34.1,34.1v72.5c0,11.8-9.6,21.3-21.3,21.3
		c-11.8,0-21.3-9.5-21.3-21.3v-64c0-4.7,3.8-8.5,8.5-8.5s8.5,3.8,8.5,8.5V128h17.1V59.7c0-14.1-11.5-25.6-25.6-25.6
		s-25.6,11.5-25.6,25.6v64c0,21.2,17.2,38.4,38.4,38.4c21.2,0,38.4-17.2,38.4-38.4V51.2h25.6c4.7,0,8.5,3.8,8.5,8.5v426.7
		c0,4.7-3.8,8.5-8.5,8.5L341.3,494.9L341.3,494.9z M399.5,494.9c1-2.7,1.5-5.6,1.6-8.5V59.7c0-2.9-0.6-5.8-1.6-8.5h10.1
		c4.7,0,8.5,3.8,8.5,8.5v426.7c0,4.7-3.8,8.5-8.5,8.5L399.5,494.9L399.5,494.9z M452.3,486.4c0,4.7-3.8,8.5-8.5,8.5h-10.1
		c1-2.7,1.5-5.6,1.6-8.5V59.7c0-2.9-0.6-5.8-1.6-8.5h10.1c4.7,0,8.5,3.8,8.5,8.5V486.4z"/>
	<path class="st0" d="M93.9,196.3h256v17.1h-256C93.9,213.4,93.9,196.3,93.9,196.3z"/>
	<path class="st0" d="M93.9,247.5h256v17.1h-256C93.9,264.6,93.9,247.5,93.9,247.5z"/>
	<path class="st0" d="M93.9,298.7h256v17.1h-256C93.9,315.8,93.9,298.7,93.9,298.7z"/>
	<path class="st0" d="M93.9,349.9h256V367h-256C93.9,367,93.9,349.9,93.9,349.9z"/>
	<path class="st0" d="M93.9,401.1h256v17.1h-256C93.9,418.2,93.9,401.1,93.9,401.1z"/>
</g>
</svg>
