<?xml version="1.0" encoding="utf-8"?>
<!-- Generator: Adobe Illustrator 25.2.3, SVG Export Plug-In . SVG Version: 6.00 Build 0)  -->
<svg version="1.1" id="Layer_1" xmlns="http://www.w3.org/2000/svg" xmlns:xlink="http://www.w3.org/1999/xlink" x="0px" y="0px"
	 viewBox="0 0 128 128" style="enable-background:new 0 0 128 128;" xml:space="preserve">
<style type="text/css">
	.st0{fill:#FFFFFF;}
</style>
<path class="st0" d="M120,35H78c-4.4,0-8,3.6-8,8v3h4v-3c0-2.2,1.8-4,4-4h42c2.2,0,4,1.8,4,4v42c0,2.2-1.8,4-4,4H78
	c-2.2,0-4-1.8-4-4V58h-4v27c0,4.4,3.6,8,8,8h42c4.4,0,8-3.6,8-8V43C128,38.6,124.4,35,120,35z"/>
<path class="st0" d="M54,85c0,2.2-1.8,4-4,4H8c-2.2,0-4-1.8-4-4V43c0-2.2,1.8-4,4-4h42c2.2,0,4,1.8,4,4v3h4v-3c0-4.4-3.6-8-8-8H8
	c-4.4,0-8,3.6-8,8v42c0,4.4,3.6,8,8,8h42c4.4,0,8-3.6,8-8V58h-4V85z"/>
<path class="st0" d="M83.9,50H42l3.2-2.4c0.9-0.7,1.1-1.9,0.4-2.8c-0.7-0.9-1.9-1.1-2.8-0.4l-8,6c-0.5,0.4-0.8,1-0.8,1.6
	s0.3,1.2,0.8,1.6l8,6c0.4,0.3,0.8,0.4,1.2,0.4c0.6,0,1.2-0.3,1.6-0.8c0.7-0.9,0.5-2.1-0.4-2.8L42,54h41.9c7.7,0,14,5.4,14.1,12
	c-0.1,6.6-6.4,12-14.1,12h-3.4c-1.1,0-2,0.9-2,2s0.9,2,2,2h3.4c9.9,0,17.9-7.1,18.1-15.8v-0.4l0,0C101.8,57.1,93.7,50,83.9,50z"/>
<path class="st0" d="M10,61c-1.1,0-2,0.9-2,2v20c0,1.1,0.9,2,2,2h14c1.1,0,2-0.9,2-2s-0.9-2-2-2H12V63C12,61.9,11.1,61,10,61z"/>
<path class="st0" d="M104,85h14c1.1,0,2-0.9,2-2V63c0-1.1-0.9-2-2-2s-2,0.9-2,2v18h-12c-1.1,0-2,0.9-2,2S102.9,85,104,85z"/>
</svg>
