<?xml version="1.0" encoding="utf-8"?>
<!-- Generator: Adobe Illustrator 25.2.3, SVG Export Plug-In . SVG Version: 6.00 Build 0)  -->
<svg version="1.1" id="Layer_1" xmlns="http://www.w3.org/2000/svg" xmlns:xlink="http://www.w3.org/1999/xlink" x="0px" y="0px"
	 viewBox="0 0 512 512" style="enable-background:new 0 0 512 512;" xml:space="preserve">
<g>
	<path d="M407.5,274.1c-9.4,0-18.7,1.3-27.8,3.9l-10.1-24.7v-26.5h85.3c5.2,0,9.5-4.2,9.5-9.5s-4.2-9.5-9.5-9.5h-9.5v-5.7
		c0-17.8-14.4-32.2-32.2-32.2H366l-6.3-12.7c1.1,0.2,2.1,0.2,3.2,0.3c8.6,0,16.4-4.8,20.3-12.5l1.8-3.5H398c5.2,0,9.5-4.2,9.5-9.5
		v-28.4h9.5c5.2,0,9.5-4.2,9.5-9.5c0-26.7-17.1-50.5-42.4-58.9c-15-5-31-6.5-46.7-4.4c-43.2,5.9-51.5,6.4-53,6.4
		c-4.8-0.2-9.1,3-10.3,7.7c-1.7,7.3-2.5,10.5,48.2,36.1v6.3l-2.9-0.9c-41.3-13.7-85.9-13.5-127.1,0.4l-35.6,13.8
		c-1.3,0.4-2.5,0.9-3.7,1.4l-0.9,0.4v0.1c-0.8,0.4-1.5,0.7-2.3,1.2h-35.9v19h18.7c-5.3,10.3-6.9,22-4.7,33.3c0.4,2.1,1,4.1,1.7,6.2
		h-45v19h56.2c6.5,6.9,14.8,11.9,24,14.4l8.7,2.4c-0.1,1.1,0,2.2,0.3,3.3l4.9,16.2h-64.9v19h70.5l5,16.8l-29.1,37.6
		c-45.3-29-105.3-18.7-138.3,23.7c-33,42.5-28.3,103.1,11,139.9H0v19h61.1c27.4,12.6,59,12.6,86.4,0h42.1v-19h-14
		c18.6-17.4,30.1-41,32.4-66.3h21.2c3.6,10.1,12.6,17.3,23.3,18.6c10.7,1.3,21.2-3.6,27.1-12.6c5.9-9,6.2-20.5,0.9-29.8l-0.5,0.3
		c1.3-5,1.2-10.3-0.4-15.3l77.2-77.2l5.2,12.8c-30.9,14.9-52.4,44.1-57.5,77.9c-5.2,33.9,6.7,68.1,31.8,91.5h-51.9v19h80
		c38.8,17.8,84.5,10.1,115.4-19.3c30.9-29.4,40.7-74.7,24.8-114.3C488.6,299.9,450.2,274,407.5,274.1z M350.6,245.7l-51-0.1l7-13.9
		c0.8-1.6,1.4-3.3,2-4.9h42V245.7z M169.8,368.9c-2-13.8-8.3-26.5-18-36.5l11.7-15.2c14.2,13.7,23.2,32,25.4,51.7H169.8z M131,368.9
		c-0.7-2.1-1.7-4-2.8-5.9l12-15.6c5.2,6.1,8.8,13.5,10.4,21.4H131z M113.7,378.4c0,5.2-4.2,9.5-9.5,9.5s-9.5-4.2-9.5-9.5
		c0-5.2,4.2-9.5,9.5-9.5S113.7,373.1,113.7,378.4z M331.7,207.8h-28.4c-5.2,0-9.5-4.2-9.5-9.5v-9.5h37.9V207.8z M312.7,169.9h-19
		v-28.4c0-5.2,4.2-9.5,9.5-9.5c5.2,0,9.5,4.2,9.5,9.5V169.9z M274.8,161.5l-13.6-9.1c-0.9-0.6-1.8-1-2.8-1.2l-0.7-0.3h17.1V161.5z
		 M241.7,216.3l2.8,2.8l-12.2,26.3H229l4.6-31.4L241.7,216.3z M224.3,308.5l8.2-17.8l18.3,9.8l-9.1,18.1L224.3,308.5z M211.5,336.3
		l4.8-10.4l24.3,14c0.1,0.1,0.2,0.2,0.4,0.3l2,1.1l9.9,5.7l5,2.8c3.4,2.3,4.8,6.5,3.6,10.4l-1.3,3.8L211.5,336.3z M209.9,245.5h-3
		l-9.3-30.8l-3.3-11.2l21,5.7L209.9,245.5z M223.7,264.4L217,279l-4.4-14.6L223.7,264.4z M205.8,355l17.5,10.1c0,0.4,0,0.7,0.1,1
		l0.8,2.8H208C207.6,364.3,206.8,359.6,205.8,355L205.8,355z M259.3,283.6l-18.9-10.1l24.2-52.4c1.7-3.6,0.9-7.9-1.9-10.7l-5.9-5.9
		l5.7-28.5l12.3,8.2v14.1c0,10.4,5.8,19.9,14.9,24.8L259.3,283.6z M360.1,207.8h-9.5v-19h37.9v19H360.1z M426.5,202.1v5.7h-19v-19
		h5.7C420.5,188.8,426.5,194.8,426.5,202.1z M341.2,169.9h-9.5v-19h3.6l9.5,19H341.2z M361.8,138.3l-11.2-3.7v-18.7
		c5.2,5.3,11.1,11.5,17,17.7l-1.4,2.8C365.4,138.1,363.5,138.9,361.8,138.3z M388.6,122.5h-5.4c-7.4-7.9-13.3-14.1-18.1-19h23.5
		V122.5z M310.6,53.5c7.4-0.9,16.9-2.2,29.2-3.9c12.8-1.7,25.9-0.5,38.2,3.6c14.3,4.8,25.1,16.7,28.4,31.4h-65.3v-9.5
		c0-3.6-2-6.9-5.2-8.5C327.6,62.5,318.4,57.7,310.6,53.5z M198.6,104.5c37.2-12.5,77.4-12.6,114.7-0.3l18.4,6.2V132H330
		c-4-11.4-14.7-19-26.7-19c-12,0-22.7,7.6-26.7,19h-63.5l-15.6-19.5c-1.6-2-3.4-3.8-5.4-5.4L198.6,104.5z M146.4,152.1
		c-2.1-10.6,1.2-21.6,8.9-29.3c1-1,2-1.8,3.1-2.5c0.5-0.3,1-0.6,1.6-0.8l3.6-1.4c7.1-1.9,14.6,0.5,19.1,6.2l18.4,23
		c1,1.3,2.4,2.2,3.9,2.8l40.1,16l-5.9,29.7l-69.5-19C157.8,173.8,148.8,164.1,146.4,152.1L146.4,152.1z M196,275.3L205,305l-10.1,22
		c-5.3-9.2-11.9-17.5-19.6-24.8L196,275.3z M143.2,454.2h-1v0.5c-23.8,12-52,12-75.8,0v-0.5h-0.9c-27.9-14.2-45.7-42.5-46.6-73.7
		C18,349.2,34.4,320,61.5,304.4s60.5-15.1,87.2,1.2l-35.5,45.8c-14.8-4.9-30.8,3-35.8,17.8c-5,14.8,2.8,30.8,17.6,35.9
		c14.7,5.1,30.8-2.7,36-17.4h19.7c-1.8,9.1-6.3,17.5-12.9,24l13.4,13.4c10.1-10.1,16.7-23.2,18.7-37.4H189
		C185.8,416.2,168.6,441.1,143.2,454.2z M246.4,378.4L246.4,378.4l14.2,8c-1.4,0.9-3.1,1.4-4.7,1.4
		C250.7,387.8,246.4,383.6,246.4,378.4z M268.1,333.8c-0.1-0.1-0.2-0.2-0.3-0.2l-9.7-5.4l13.7-27.2l18.3-36.3l47.1,0.1L268.1,333.8z
		 M407.5,463.7c-13.2,0-26.1-3.1-37.9-9v-0.5h-0.9c-28.6-14.6-46.5-44.1-46.4-76.1c0.1-32.1,18.3-61.4,47-75.8l21.8,53.1
		c-11.3,8-15.1,23-9.2,35.5c6,12.5,20.1,18.8,33.4,15c13.3-3.8,22-16.6,20.5-30.3c-1.5-13.8-12.6-24.5-26.4-25.4L387,295.7
		c32-8.1,65.9,3.1,86.8,28.6c21,25.6,25.3,60.9,11.1,90.7C470.7,444.9,440.6,463.8,407.5,463.7z M407.5,368.9c5.2,0,9.5,4.2,9.5,9.5
		c0,5.2-4.2,9.5-9.5,9.5c-5.2,0-9.5-4.2-9.5-9.5C398,373.1,402.3,368.9,407.5,368.9z"/>
	<path d="M94.7,424.8l-3.8,18.6c12.7,2.6,25.9,1.4,38-3.4l-7.1-17.6C113.2,425.8,103.8,426.6,94.7,424.8z"/>
	<path d="M398,424.8l-3.8,18.6c12.7,2.6,25.9,1.4,38-3.4l-7.1-17.6C416.5,425.8,407,426.6,398,424.8z"/>
	<path d="M445.9,324.3l-11,15.4c11.4,8.1,18.6,20.8,19.8,34.7c1.2,13.9-3.8,27.6-13.7,37.5l13.4,13.4c13.8-13.8,20.8-33,19.2-52.4
		C472,353.4,461.9,335.6,445.9,324.3L445.9,324.3z"/>
	<path d="M75.8,103.5h19v19h-19V103.5z"/>
	<path d="M47.4,160.4h19v19h-19V160.4z"/>
	<path d="M75.8,217.3h19v19h-19V217.3z"/>
	<path d="M246.4,454.2h19v19h-19V454.2z"/>
	<path d="M208.5,454.2h19v19h-19V454.2z"/>
</g>
</svg>
