<?xml version="1.0" encoding="utf-8"?>
<!-- Generator: Adobe Illustrator 25.2.3, SVG Export Plug-In . SVG Version: 6.00 Build 0)  -->
<svg version="1.1" id="Layer_1" xmlns="http://www.w3.org/2000/svg" xmlns:xlink="http://www.w3.org/1999/xlink" x="0px" y="0px"
	 viewBox="0 0 64 64" style="enable-background:new 0 0 64 64;" xml:space="preserve">
<style type="text/css">
	.st0{fill:#FF8A43;}
</style>
<g id="surface1">
	<path class="st0" d="M32.2,0.5c-0.6,0-1.1,0.1-1.6,0.3L11.8,7.2c-0.8,0.3-1.4,1-1.4,1.9s0.5,1.6,1.4,1.9l6.5,2.2l-0.7,4.5
		c-0.1,0.6,0.1,1.2,0.5,1.6l0.1,0.1c0,0,0,0,0,0.1c-0.1,0.4-0.1,1.2-0.2,2.6c-0.1,0-0.3,0-0.4,0.1c-0.9,0.2-1.5,1-1.8,2.3
		c-0.2,1-0.1,2.2,0.2,3.3c0.5,2,1.7,3.5,2.9,4c0.4,1.3,1,2.5,1.6,3.7L8.3,41.4C4.5,43.2,2,47.1,2,51.3V59c0,1.7,1.3,3,3,3h54
		c1.7,0,3-1.3,3-3v-7.7c0-4.2-2.5-8.1-6.3-9.9l-12.3-5.9c0.6-1.2,1.2-2.5,1.6-3.7c1.2-0.5,2.3-2,2.9-4c0.3-1.2,0.4-2.4,0.2-3.3
		c-0.2-1.2-0.9-2-1.8-2.3c-0.1,0-0.2-0.1-0.4-0.1c0-1.1-0.1-2-0.1-2.4c0.1-0.1,0.3-0.2,0.4-0.3c0.4-0.4,0.5-1,0.5-1.6L46,13.3l4-1.4
		v2.6c-0.6,0.6-2,2.1-2,4.1c0,2.4,2.2,4.2,2.3,4.3c0.2,0.2,0.4,0.2,0.6,0.2c0.2,0,0.5-0.1,0.6-0.2s2.3-1.9,2.3-4.3
		c0-1.8-1.1-3.2-1.8-3.9v-3.5l0.5-0.2c0.8-0.3,1.4-1,1.4-1.9s-0.5-1.6-1.4-1.9L33.8,0.8C33.3,0.6,32.7,0.5,32.2,0.5z M32.2,2.5
		c0.3,0,0.7,0.1,1,0.2l18.7,6.4l-18.7,6.4c-0.6,0.2-1.3,0.2-1.9,0L12.5,9.1l18.7-6.4C31.5,2.6,31.8,2.5,32.2,2.5z M38.4,6.2
		c-0.1,0-0.3,0-0.4,0l-6.1,1.9c-0.5,0.2-0.8,0.7-0.7,1.3c0.1,0.4,0.5,0.7,1,0.7c0.1,0,0.2,0,0.3,0l6.1-1.9c0.5-0.2,0.8-0.7,0.7-1.3
		C39.1,6.5,38.7,6.2,38.4,6.2z M20.3,13.9l10.3,3.5c0.5,0.2,1.1,0.3,1.6,0.3c0.5,0,1.1-0.1,1.6-0.3L44,13.9l0.6,4.1h-4.7h-0.1
		c-1.4,0-2.8,0.3-4,0.9l-3.4,1.7c-0.3,0.1-0.6,0.1-0.9,0L28.2,19c-1.3-0.6-2.7-0.9-4.1-1h-4.4L20.3,13.9z M50.9,16.1
		c0.5,0.6,1,1.5,1,2.4s-0.5,1.8-1,2.4c-0.5-0.6-1-1.5-1-2.4S50.4,16.8,50.9,16.1z M39.9,20L39.9,20h4c0.1,0.5,0.1,2,0.1,2.6
		c0,0.3,0,0.6,0,0.8c0,0.4,0.2,0.7,0.5,0.8c0.3,0.2,0.7,0.1,1-0.1c0.2-0.1,0.3-0.1,0.3-0.1s0.2,0.2,0.3,0.7c0.1,0.7,0.1,1.6-0.2,2.4
		c-0.5,1.8-1.4,2.6-1.7,2.6c-0.4,0-0.8,0.3-1,0.7C41.6,36.3,37.2,42,32,42s-9.6-5.7-11.3-11.4c-0.1-0.4-0.5-0.7-1-0.7
		c-0.3,0-1.2-0.8-1.7-2.6c-0.2-0.9-0.3-1.8-0.2-2.4c0.1-0.6,0.3-0.7,0.3-0.7s0.1,0,0.3,0.1c0.3,0.2,0.7,0.2,1,0.1
		c0.3-0.2,0.5-0.5,0.5-0.8v-0.7c0-0.7,0.1-2.1,0.1-2.7h3.9H24c1.1,0,2.2,0.3,3.1,0.7l3.4,1.7c0.4,0.2,0.9,0.3,1.3,0.3
		c0.5,0,0.9-0.1,1.3-0.3l3.4-1.7C37.7,20.3,38.8,20,39.9,20z M20.2,37.9L27.9,60h-2.4l-8.2-11l2.6-3.4c0.2-0.2,0.2-0.5,0.2-0.7
		l-0.9-6.4L20.2,37.9z M43.8,37.9l1.2,0.6l-1,6.4c0,0.3,0,0.5,0.2,0.7l2.5,3.4l-8.5,10.4C38.1,59.6,38,59.8,38,60h-2L43.8,37.9z
		 M22.6,38.6c2.5,3.2,5.8,5.4,9.4,5.4s6.9-2.3,9.4-5.4l-7.3,21.1c0,0.1,0,0.2,0,0.3h-4c0-0.1,0-0.2,0-0.3L22.6,38.6z M17.2,39.3
		l0.8,5.4l-2.8,3.7c-0.3,0.4-0.3,0.8,0,1.2L23,60H5c-0.6,0-1-0.4-1-1v-7.7c0-3.4,2-6.6,5.1-8.1L17.2,39.3z M46.8,39.3l8.1,3.9
		c3.1,1.5,5.1,4.7,5.1,8.1V59c0,0.6-0.4,1-1,1H40.3l8.5-10.4c0.3-0.4,0.3-0.9,0-1.2L46,44.7L46.8,39.3z M7,54c-0.6,0-1,0.4-1,1v2
		c0,0.6,0.4,1,1,1s1-0.4,1-1v-2C8,54.4,7.6,54,7,54z M12,54c-0.6,0-1,0.4-1,1v2c0,0.6,0.4,1,1,1s1-0.4,1-1v-2C13,54.4,12.6,54,12,54
		z M17,54c-0.6,0-1,0.4-1,1v2c0,0.6,0.4,1,1,1s1-0.4,1-1v-2C18,54.4,17.6,54,17,54z M47,54c-0.6,0-1,0.4-1,1v2c0,0.6,0.4,1,1,1
		s1-0.4,1-1v-2C48,54.4,47.6,54,47,54z M52,54c-0.6,0-1,0.4-1,1v2c0,0.6,0.4,1,1,1s1-0.4,1-1v-2C53,54.4,52.6,54,52,54z M57,54
		c-0.6,0-1,0.4-1,1v2c0,0.6,0.4,1,1,1s1-0.4,1-1v-2C58,54.4,57.6,54,57,54z"/>
</g>
</svg>
