<?xml version="1.0" encoding="utf-8"?>
<!-- Generator: Adobe Illustrator 25.2.3, SVG Export Plug-In . SVG Version: 6.00 Build 0)  -->
<svg version="1.1" id="Layer_1" xmlns="http://www.w3.org/2000/svg" xmlns:xlink="http://www.w3.org/1999/xlink" x="0px" y="0px"
	 viewBox="0 0 100 100" style="enable-background:new 0 0 100 100;" xml:space="preserve">
<style type="text/css">
	.st0{fill:#FFFFFF;}
</style>
<path class="st0" d="M83.5,46.5c-1.2,0-2.4,0.2-3.5,0.6l-4.4-9.2l2.8-2.2c0.4-0.3,0.6-0.8,0.5-1.3c0-0.5-0.3-0.9-0.8-1.2l-3.7-2
	c-0.7-0.4-1.6-0.1-2,0.6c-0.4,0.7-0.1,1.6,0.6,2l1.7,0.9l-1.9,1.6c-0.5,0.4-0.7,1.2-0.4,1.8l0.7,1.5l-18.3,2L53,37.8h3.8
	c0.8,0,1.5-0.7,1.5-1.5s-0.7-1.5-1.5-1.5h-10c-0.8,0-1.5,0.7-1.5,1.5s0.7,1.5,1.5,1.5h3c0,0.1,0.1,0.2,0.1,0.3l0.2,0.5h-5.7
	l-2.2-3.1c-0.5-0.7-1.4-0.8-2.1-0.3c-0.7,0.5-0.8,1.4-0.3,2.1l2.7,3.7c0.3,0.4,0.7,0.6,1.2,0.6h7.9l0.2,0.4l-21.2,2.3l-3.3-6.4h3.9
	c0.8,0,1.5-0.7,1.5-1.5s-0.7-1.5-1.5-1.5h-10c-0.8,0-1.5,0.7-1.5,1.5s0.7,1.5,1.5,1.5H24c0,0.1,0.1,0.2,0.1,0.3l3.7,7.2l-4.1,3.8
	c-2-1.6-4.5-2.6-7.2-2.6c-6.2,0-11.2,5-11.2,11.2S10.3,69,16.5,69c5.7,0,10.4-4.3,11.1-9.8h4.2c0.6,1.7,2.2,2.9,4.1,2.9
	s3.5-1.2,4.1-2.9h16.9c0.6,1.7,2.2,2.9,4.1,2.9c2.4,0,4.4-2,4.4-4.4c0-0.8-0.2-1.5-0.6-2.1l10.3-12l2.3,4.8c-3.1,2-5.1,5.5-5.1,9.4
	c0,6.2,5,11.2,11.2,11.2s11.2-5,11.2-11.2C94.8,51.5,89.7,46.5,83.5,46.5z M57.9,54.7c-0.4,0.4-0.8,1-1,1.6H43.3L56,50.9L57.9,54.7z
	 M61,53.4c-0.2,0-0.3,0-0.4,0l-1.8-3.7l11.1-4.6l-7.3,8.6C62,53.5,61.5,53.4,61,53.4z M66.3,43.3L57.5,47l-1.3-2.6L66.3,43.3z
	 M53.1,44.8l1.7,3.4l-15.7,6.6c-0.8-0.9-1.9-1.4-3.2-1.4c-0.2,0-0.4,0-0.6,0.1L32,47L53.1,44.8z M32.7,54.8
	c-0.4,0.4-0.7,0.9-0.9,1.5h-4.2c-0.2-1.8-0.9-3.5-1.9-5l3.5-3.2L32.7,54.8z M23.5,53.3c0.6,0.9,1,1.9,1.1,2.9h-4.3L23.5,53.3z
	 M16.5,66c-4.6,0-8.3-3.7-8.3-8.3s3.7-8.3,8.3-8.3c1.9,0,3.6,0.6,5,1.7l-6,5.5c-0.4,0.4-0.6,1.1-0.4,1.6c0.2,0.6,0.8,0.9,1.4,0.9
	h8.1C23.9,63.1,20.5,66,16.5,66z M83.5,66c-4.6,0-8.3-3.7-8.3-8.3c0-2.7,1.3-5.2,3.4-6.7l3.5,7.3c0.3,0.5,0.8,0.8,1.3,0.8
	c0.2,0,0.4,0,0.6-0.1c0.7-0.4,1-1.2,0.7-2l-3.5-7.3c0.7-0.2,1.4-0.3,2.2-0.3c4.6,0,8.3,3.7,8.3,8.3C91.8,62.3,88.1,66,83.5,66z"/>
</svg>
