<?xml version="1.0" encoding="utf-8"?>
<!-- Generator: Adobe Illustrator 25.2.3, SVG Export Plug-In . SVG Version: 6.00 Build 0)  -->
<svg version="1.1" id="Layer_1" xmlns="http://www.w3.org/2000/svg" xmlns:xlink="http://www.w3.org/1999/xlink" x="0px" y="0px"
	 viewBox="0 0 64 64" style="enable-background:new 0 0 64 64;" xml:space="preserve">
<style type="text/css">
	.st0{fill:#FFFFFF;}
</style>
<g id="surface1">
	<path class="st0" d="M32,6c-1.9,0-4.6,0.6-6.3,1.7c-1.8,0.1-3.4,0.9-4.4,2.3c-0.1,0-0.1,0-0.2,0h-0.7c-1.4,0-3.6,0.4-5,1.3
		c-2.6,0.1-4.4,2-4.7,4.9c-0.2,1.7,0,3,0.1,3.8c0,0.2,0.1,0.5,0.1,0.6v0.1h-0.1c-1.3,0.4-1.9,2.1-1.3,4.2c0.4,1.4,1.1,2.4,2,2.8
		c0.5,1.4,1.2,2.8,2,4l-9,5.8C1.7,39.4,0,42.6,0,46v3.2C0,50.7,1.3,52,2.8,52H8v3c0,1.7,1.3,3,3,3h42c1.7,0,3-1.3,3-3v-3h5.1
		c1.6,0,2.8-1.3,2.8-2.8V46c0-3.4-1.7-6.6-4.6-8.4L51,32.3c1-1.3,1.8-2.8,2.4-4.5c0.9-0.4,1.6-1.4,2-2.8c0.6-2.1,0-3.8-1.3-4.2H54
		c-0.1-0.5-0.2-1-0.4-1.6c0.1,0,0.2,0.1,0.3,0.1c0.3,0.1,0.7,0.1,1-0.2s0.4-0.6,0.3-1c-1-5.1-4.8-8.1-10-8.1h-0.7
		c-0.5,0-1.2,0.1-1.9,0.2C40.3,7.5,36.9,6,32.9,6H32z M32,8h0.9c5.1,0,8.7,2.5,10.3,7c-0.6,0-1.1,0.1-1.5,0.5
		c-0.4,0.3-0.7,1-0.3,2.1c0.5,1.4,0.7,2.3,0.8,3.4c0,0.4,0.2,0.7,0.5,0.8c0.3,0.2,0.7,0.1,1-0.1c0.1,0,0.1-0.1,0.1-0.1
		c0.2,0.2,0.4,1.1,0.1,2.5c-0.4,1.4-1.1,2.1-1.3,2.1c-0.4,0-0.8,0.3-1,0.7c-1.4,4.7-5.2,9.7-9.5,9.7s-8.1-5-9.5-9.7
		c-0.1-0.4-0.5-0.7-1-0.7c-0.2,0-1-0.7-1.3-2.1s-0.1-2.4,0-2.5c0,0,0.1,0,0.2,0.1c0.3,0.2,0.7,0.2,1,0.1c0.3-0.2,0.5-0.5,0.5-0.8
		c0-0.4,0.1-0.9,0.1-1.3c0.1-0.4,0-0.8-0.1-1.4c-0.1-1-0.3-2.4-0.1-4.4c0.3-2.7,1.8-4.2,4.2-4.2c0.2,0,0.4-0.1,0.6-0.2
		C27.8,8.7,30.1,8,32,8z M44.5,12h0.7c3.7,0,6.5,1.8,7.7,5.1c-0.4,0-0.7,0.1-1,0.4s-0.7,0.8-0.3,1.9s0.5,1.7,0.6,2.6
		c0,0.4,0.3,0.7,0.6,0.8c0.3,0.1,0.6,0.1,0.8,0c0.1,0.3,0.1,0.8-0.1,1.6c-0.3,1-0.8,1.5-0.8,1.5c-0.4,0-0.8,0.3-1,0.7
		c-0.7,2.5-2.2,4.7-3.9,6.1c-0.4,0.3-0.5,1-0.2,1.4c0.2,0.2,0.5,0.4,0.8,0.4c0.2,0,0.4-0.1,0.6-0.2c0.2-0.2,0.4-0.4,0.7-0.6l8.5,5.5
		c2.3,1.5,3.7,4,3.7,6.7v3.2l0,0c0,0.4-0.4,0.8-0.8,0.8H56v-0.1c0-4.6-2.5-8.9-6.5-11.2l-8.9-5.2c1.1-1.6,2.1-3.4,2.7-5.2
		c1.1-0.4,2-1.7,2.5-3.5c0.7-2.5,0-4.6-1.5-5c-0.1,0-0.2,0-0.3-0.1c-0.1-0.9-0.3-1.7-0.7-2.7c0.3,0.1,0.6,0.1,0.9,0.3
		c0.3,0.1,0.7,0.1,1-0.2c0.3-0.2,0.4-0.6,0.3-1c-0.3-1.6-0.9-3-1.6-4.2C44.1,12,44.3,12,44.5,12z M20.3,12c-0.2,0.6-0.3,1.1-0.4,1.8
		c-0.2,2.2,0,3.8,0.1,4.8c0,0.3,0.1,0.7,0.1,0.8c0,0.1,0,0.2-0.1,0.4c-0.1,0-0.2,0-0.3,0.1c-1.5,0.4-2.1,2.5-1.5,5
		c0.5,1.8,1.4,3,2.5,3.5c0.6,1.8,1.5,3.6,2.7,5.2l-8.9,5.2C10.5,41,8,45.3,8,49.9V50H2.8C2.4,50,2,49.6,2,49.2V46
		c0-2.7,1.4-5.3,3.7-6.7l9.2-5.9c0.1,0.1,0.2,0.2,0.3,0.3c0.2,0.2,0.4,0.3,0.7,0.3c0.3,0,0.5-0.1,0.7-0.3c0.4-0.4,0.4-1,0-1.4
		c-1.4-1.4-2.6-3.4-3.2-5.5c-0.1-0.4-0.5-0.7-0.9-0.7c-0.1,0-0.6-0.5-0.9-1.5c-0.2-0.8-0.1-1.3-0.1-1.6c0.3,0.1,0.6,0.1,0.9,0
		c0.3-0.2,0.5-0.5,0.5-0.8s0.1-0.7,0.1-1c0.1-0.3,0-0.7-0.1-1.2c-0.1-0.7-0.2-1.8-0.1-3.4c0.2-2,1.3-3.1,3-3.1
		c0.2,0,0.4-0.1,0.6-0.2C17.2,12.5,18.9,12,20.3,12z M27,13c-0.5,0.1-1.1,0.3-1.4,0.8l-1.4,2.1c-0.3,0.5-0.2,1.1,0.3,1.4
		c0.2,0.1,0.4,0.2,0.5,0.2c0.3,0,0.6-0.2,0.8-0.4l1.3-2l1.2,0.6c2.5,1.2,5.2,1.8,7.9,1.8h2.2c0.6,0,1-0.4,1-1s-0.4-1-1-1h-2.2
		c-2.4,0-4.9-0.6-7.1-1.6L28,13.1C27.7,13,27.3,12.9,27,13z M24.7,35.1c2,2.2,4.6,3.7,7.3,3.7s5.3-1.5,7.3-3.7l9.2,5.3
		c3.4,2,5.5,5.6,5.5,9.5V55c0,0.6-0.4,1-1,1H11c-0.6,0-1-0.4-1-1v-5.1c0-3.9,2.1-7.6,5.5-9.5L24.7,35.1z M39.9,39
		c-0.1,0-0.3,0-0.4,0.1L32,42.9l-7.6-3.8c-0.5-0.2-1.1,0-1.3,0.4c-0.2,0.5,0,1.1,0.4,1.3l8,4C31.7,45,31.8,45,32,45s0.3,0,0.4-0.1
		l8-4c0.5-0.2,0.7-0.8,0.4-1.3C40.7,39.2,40.3,39,39.9,39z M12,50c-0.6,0-1,0.4-1,1v2c0,0.6,0.4,1,1,1s1-0.4,1-1v-2
		C13,50.4,12.6,50,12,50z M17,50c-0.6,0-1,0.4-1,1v2c0,0.6,0.4,1,1,1s1-0.4,1-1v-2C18,50.4,17.6,50,17,50z M22,50c-0.6,0-1,0.4-1,1
		v2c0,0.6,0.4,1,1,1s1-0.4,1-1v-2C23,50.4,22.6,50,22,50z M27,50c-0.6,0-1,0.4-1,1v2c0,0.6,0.4,1,1,1s1-0.4,1-1v-2
		C28,50.4,27.6,50,27,50z M32,50c-0.6,0-1,0.4-1,1v2c0,0.6,0.4,1,1,1c0.6,0,1-0.4,1-1v-2C33,50.4,32.6,50,32,50z M37,50
		c-0.6,0-1,0.4-1,1v2c0,0.6,0.4,1,1,1s1-0.4,1-1v-2C38,50.4,37.6,50,37,50z M42,50c-0.6,0-1,0.4-1,1v2c0,0.6,0.4,1,1,1s1-0.4,1-1v-2
		C43,50.4,42.6,50,42,50z M47,50c-0.6,0-1,0.4-1,1v2c0,0.6,0.4,1,1,1s1-0.4,1-1v-2C48,50.4,47.6,50,47,50z M52,50c-0.6,0-1,0.4-1,1
		v2c0,0.6,0.4,1,1,1s1-0.4,1-1v-2C53,50.4,52.6,50,52,50z"/>
</g>
</svg>
