<?xml version="1.0" encoding="utf-8"?>
<!-- Generator: Adobe Illustrator 25.2.3, SVG Export Plug-In . SVG Version: 6.00 Build 0)  -->
<svg version="1.1" id="Layer_1" xmlns="http://www.w3.org/2000/svg" xmlns:xlink="http://www.w3.org/1999/xlink" x="0px" y="0px"
	 viewBox="0 0 100 100" style="enable-background:new 0 0 100 100;" xml:space="preserve">
<path d="M89.4,48.8c-4.3-4.7-10.8-6.7-17-5.2l-5.8-17.3h9.8c2,0,3.6,1.6,3.6,3.6s-1.6,3.6-3.6,3.6c-0.8,0-1.5,0.7-1.5,1.5
	c0,0.8,0.7,1.5,1.5,1.5c3.7,0,6.7-3,6.7-6.7s-3-6.7-6.7-6.7H64.6c0,0-0.1,0-0.1,0c-0.1,0-0.1,0-0.2,0c-0.1,0-0.1,0-0.2,0
	c0,0-0.1,0-0.1,0c0,0,0,0-0.1,0c-0.1,0-0.1,0-0.2,0.1c0,0-0.1,0-0.1,0.1c0,0-0.1,0.1-0.1,0.1c0,0-0.1,0.1-0.1,0.1
	c0,0-0.1,0.1-0.1,0.1c0,0-0.1,0.1-0.1,0.1c0,0-0.1,0.1-0.1,0.1c0,0,0,0.1-0.1,0.1c0,0,0,0.1-0.1,0.1c0,0,0,0.1,0,0.1
	c0,0,0,0.1,0,0.1c0,0.1,0,0.1,0,0.2c0,0,0,0,0,0.1c0,0,0,0.1,0,0.1c0,0.1,0,0.1,0,0.2s0,0.1,0,0.2c0,0,0,0.1,0,0.1l2.5,7.4H37v-6
	l3.8,0.9c0.1,0,0.2,0,0.4,0c0.7,0,1.3-0.5,1.5-1.2c0.2-0.8-0.3-1.6-1.1-1.8l-11.4-2.8c-0.8-0.2-1.6,0.3-1.8,1.1
	c-0.2,0.8,0.3,1.6,1.1,1.8L34,26c0,0.1,0,0.2,0,0.3v7.7L23,60c0,0.1-0.1,0.2-0.1,0.3c0,0.2,0,0.4,0,0.6c0,0,0,0.1,0,0.1
	c0,0,0,0.1,0,0.1c0,0,0,0.1,0.1,0.1c0,0,0,0.1,0.1,0.1c0,0,0.1,0.1,0.1,0.1c0,0,0.1,0.1,0.1,0.1c0,0,0.1,0.1,0.1,0.1
	c0,0,0.1,0.1,0.1,0.1c0.2,0.1,0.4,0.2,0.6,0.2c0.1,0,0.2,0,0.3,0c0,0,0,0,0,0h13.5c-0.8,7.3-7,12.9-14.4,12.9c-0.3,0-0.5,0-0.8,0
	c-3.9-0.2-7.4-1.9-10-4.8c-2.6-2.9-3.9-6.6-3.7-10.4s1.9-7.4,4.8-10c2.9-2.6,6.6-3.9,10.4-3.7c0.8,0,1.6-0.6,1.6-1.4
	s-0.6-1.6-1.4-1.6C14.7,42.7,6.5,50.1,6,59.7c-0.2,4.7,1.3,9.1,4.5,12.6c3.1,3.5,7.4,5.5,12.1,5.8c0.3,0,0.6,0,0.9,0
	c4.3,0,8.4-1.6,11.7-4.5c3.3-3,5.3-7,5.7-11.5h1.8c0.7,3.1,3.4,5.4,6.7,5.4c3.8,0,6.9-3.1,6.9-6.9c0-2.2-1.1-4.2-2.7-5.5l14.2-15.9
	l7.3,21.9c0.2,0.6,0.8,1,1.4,1c0.2,0,0.3,0,0.5-0.1c0.8-0.3,1.2-1.1,1-1.9l-4.5-13.6c5-1.1,10.3,0.5,13.7,4.4c5.4,5.9,5,15-0.9,20.4
	c-5.9,5.4-15,5-20.4-0.9c-2.6-2.8-3.9-6.5-3.8-10.4c0.2-3.9,1.8-7.4,4.7-10c0.6-0.6,0.7-1.5,0.1-2.1s-1.5-0.7-2.1-0.1
	c-3.4,3.2-5.5,7.5-5.7,12.1c-0.2,4.7,1.4,9.1,4.6,12.6c3.4,3.8,8.2,5.7,12.9,5.7c4.2,0,8.5-1.5,11.8-4.6C95.5,67,96,55.9,89.4,48.8z
	 M42.7,59.1h-1.8c-0.5-5.6-3.7-10.7-8.5-13.5l3.2-7.6l8.7,18C43.5,56.8,42.9,57.9,42.7,59.1z M31.2,48.4c3.7,2.4,6.2,6.3,6.7,10.7
	H26.7L31.2,48.4z M49.4,64.5c-2.1,0-3.9-1.7-3.9-3.9c0-2.1,1.7-3.9,3.9-3.9c2.1,0,3.9,1.7,3.9,3.9S51.5,64.5,49.4,64.5z M50.6,53.8
	c-0.4-0.1-0.8-0.1-1.3-0.1c-0.9,0-1.8,0.2-2.6,0.5l-8.9-18.4h28.8l0,0.1L50.6,53.8z"/>
</svg>
