<?xml version="1.0" encoding="utf-8"?>
<!-- Generator: Adobe Illustrator 25.2.3, SVG Export Plug-In . SVG Version: 6.00 Build 0)  -->
<svg version="1.1" id="Layer_1" xmlns="http://www.w3.org/2000/svg" xmlns:xlink="http://www.w3.org/1999/xlink" x="0px" y="0px"
	 viewBox="0 0 64 64" style="enable-background:new 0 0 64 64;" xml:space="preserve">
<g>
	<path d="M54.1,38.3c-5-3-8.1-8.5-8.1-14.3v-0.6c0-3.7-0.7-7.2-2-10.6c-0.1-0.8-0.4-1.5-1-2C42.8,9.7,41.2,2,32,2s-10.8,7.7-11,8.8
		c-0.6,0.5-0.9,1.2-1,2c-1.3,3.4-2,7-2,10.6V24c0,5.8-3.1,11.3-8.1,14.3L7.1,40l1.3,0.9c1.7,1.1,3.1,2.5,4.2,4.1
		c-0.4,0.9-0.7,1.9-0.7,2.9V63h40V47.9c0-1-0.3-2-0.7-2.9c1.2-1.6,2.6-3,4.2-4.1l1.3-0.9L54.1,38.3z M37,12c-0.6,0-1-0.4-1-1
		s0.4-1,1-1s1,0.4,1,1S37.6,12,37,12z M41,12c0.6,0,1,0.4,1,1s-0.4,1-1,1s-1-0.4-1-1S40.4,12,41,12z M32,4c6.1,0,8.1,4,8.7,6
		c-0.3,0-0.6,0.1-0.9,0.2C39.5,8.9,38.4,8,37,8c-0.7,0-1.3,0.2-1.8,0.6C34.5,7.6,33.3,7,32,7s-2.5,0.6-3.2,1.6C28.3,8.2,27.7,8,27,8
		c-1.4,0-2.5,0.9-2.9,2.2c-0.3-0.1-0.6-0.2-0.9-0.2C23.9,8,25.9,4,32,4z M34,11c0,1.1-0.9,2-2,2s-2-0.9-2-2s0.9-2,2-2S34,9.9,34,11z
		 M28,11c0,0.6-0.4,1-1,1s-1-0.4-1-1s0.4-1,1-1S28,10.4,28,11z M23,12c0.6,0,1,0.4,1,1s-0.4,1-1,1s-1-0.4-1-1S22.4,12,23,12z
		 M20,23.4c0-2.7,0.4-5.4,1.2-8c0.5,0.4,1.1,0.6,1.8,0.6c1.4,0,2.5-0.9,2.9-2.2c0.3,0.1,0.7,0.2,1.1,0.2c0.7,0,1.3-0.2,1.8-0.6
		c0.7,1,1.9,1.6,3.2,1.6s2.5-0.6,3.2-1.6c0.5,0.4,1.1,0.6,1.8,0.6c0.4,0,0.8-0.1,1.1-0.2c0.3,1.3,1.5,2.2,2.9,2.2
		c0.7,0,1.3-0.2,1.8-0.6c0.8,2.6,1.2,5.3,1.2,8V24c0,2.3-0.7,4.5-2,6.3V20h-2.8c-2.5,0-4.8-1-6.5-2.7L32,16.6l-0.7,0.7
		C29.5,19,27.2,20,24.8,20H22v10.3c-1.3-1.8-2-4-2-6.3V23.4z M39.9,44.4c0.3-0.8,0.6-1.7,0.9-2.5L46,43c1.8,0.4,3.2,1.8,3.7,3.5
		c-1.5,0.7-2.8,1.9-3.7,3.3c-1.3-2.2-3.7-3.8-6.4-3.8c-0.9,0-1.8,0.2-2.7,0.5c-0.2-0.9-0.7-1.6-1.5-2.1l2.1-3.3l1.4,0.3
		c-0.2,0.7-0.5,1.5-0.8,2.2L39.9,44.4z M42,58.6V61H22v-2.4l-1.4-1.4c-1-1-1.6-2.4-1.6-3.8c0-3,2.4-5.4,5.4-5.4
		c1.4,0,2.8,0.6,3.8,1.6l3.8,3.8l3.8-3.8c1-1,2.4-1.6,3.8-1.6c3,0,5.4,2.4,5.4,5.4c0,1.4-0.6,2.8-1.6,3.8L42,58.6z M18,49.8
		c-0.9-1.5-2.2-2.6-3.7-3.3c0.5-1.7,1.9-3.1,3.7-3.5l5.2-1.1c0.3,0.9,0.5,1.7,0.9,2.5l1.9-0.7c-0.3-0.7-0.5-1.5-0.8-2.2l1.4-0.3
		l2.1,3.3c-0.8,0.4-1.3,1.2-1.5,2.1c-0.8-0.3-1.8-0.5-2.7-0.5C21.6,46,19.2,47.5,18,49.8z M40,29c0,4.4-3.6,8-8,8s-8-3.6-8-8v-7h0.8
		c2.7,0,5.2-0.9,7.2-2.6c2,1.7,4.6,2.6,7.2,2.6H40V29z M36,39.7l-2.7,4.4c-0.5,0.1-0.9,0.3-1.3,0.6c-0.4-0.3-0.8-0.5-1.3-0.6
		L28,39.7v-1.6c1.2,0.5,2.6,0.8,4,0.8s2.8-0.3,4-0.8V39.7z M34.7,47.9l-0.2,0.2c0,0,0,0,0,0L32,50.6l-2.4-2.4c0,0,0,0,0,0l-0.2-0.2
		c-0.2-0.2-0.3-0.5-0.3-0.8c0-0.6,0.5-1.1,1.1-1.1c0.3,0,0.6,0.1,0.8,0.3l1.1,1.1l1.1-1.1c0.2-0.2,0.5-0.3,0.8-0.3
		c0.6,0,1.1,0.5,1.1,1.1C35,47.4,34.9,47.7,34.7,47.9z M26,37L26,37l0,2.2l-1.3,0.3C24.3,38,24.1,36.5,24,35
		C24.6,35.8,25.3,36.4,26,37z M38,39.2V37h0c0.8-0.6,1.4-1.2,2-2c-0.1,1.5-0.3,3-0.6,4.5L38,39.2z M10.8,40.1l0.1-0.1
		c4-2.4,6.9-6.2,8.2-10.6c0.6,1.4,1.5,2.7,2.6,3.8l0.2,0.2v0.2c0,2.1,0.2,4.2,0.7,6.3L17.5,41c-1.5,0.3-2.7,1.1-3.7,2.1
		C13,42,11.9,41,10.8,40.1z M14,48.6c1.1,0.6,1.9,1.6,2.5,2.7l0.6,1.1c0,0.3-0.1,0.6-0.1,1c0,2,0.8,3.8,2.2,5.2l0.8,0.8V61h-6V48.6z
		 M44,61v-1.6l0.8-0.8c1.4-1.4,2.2-3.2,2.2-5.2c0-0.3,0-0.7-0.1-1l0.6-1.1c0.6-1.1,1.4-2.1,2.5-2.7V61H44z M50.1,43.1
		c-1-1-2.2-1.8-3.7-2.1l-5.2-1.1c0.5-2.1,0.7-4.2,0.7-6.3v-0.2l0.2-0.2c1.1-1.1,2-2.4,2.6-3.8c1.3,4.4,4.2,8.2,8.2,10.6l0.1,0.1
		C52.1,41,51,42,50.1,43.1z"/>
	<circle cx="27" cy="25" r="1"/>
	<circle cx="37" cy="25" r="1"/>
	<path d="M32,32c-1.1,0-2-0.9-2-2h-2c0,2.2,1.8,4,4,4s4-1.8,4-4h-2C34,31.1,33.1,32,32,32z"/>
</g>
</svg>
